<svg width="39" height="37" viewBox="0 0 39 37" fill="none" xmlns="http://www.w3.org/2000/svg">
<path d="M11.1278 37C12.1314 37 12.8709 36.509 14.0858 35.4393L20.1251 30.1436H30.7246C36.0244 30.1436 39 27.0924 39 21.8844V8.25924C39 3.05118 36.0244 0 30.7246 0H8.27539C2.99323 0 0 3.05118 0 8.25924V21.8844C0 27.11 3.08126 30.1436 8.15214 30.1436H8.87404V34.4398C8.87404 36.0005 9.70158 37 11.1278 37ZM12.0081 33.072V28.0744C12.0081 27.0398 11.5503 26.6365 10.5643 26.6365H8.39865C5.08849 26.6365 3.50384 24.9706 3.50384 21.7791V8.36445C3.50384 5.17299 5.08849 3.50711 8.39865 3.50711H30.619C33.9115 3.50711 35.4962 5.17299 35.4962 8.36445V21.7791C35.4962 24.9706 33.9115 26.6365 30.619 26.6365H19.9314C18.8573 26.6365 18.3291 26.8118 17.5896 27.5834L12.0081 33.072ZM10.5467 10.4863H28.2772C28.8758 10.4863 29.3688 9.99526 29.3688 9.38152C29.3688 8.78531 28.8758 8.29431 28.2772 8.29431H10.5467C9.94808 8.29431 9.47269 8.78531 9.47269 9.38152C9.47269 9.99526 9.94808 10.4863 10.5467 10.4863ZM10.5467 16.0626H28.2772C28.8758 16.0626 29.3688 15.554 29.3688 14.9403C29.3688 14.3616 28.8758 13.8531 28.2772 13.8531H10.5467C9.94808 13.8531 9.47269 14.3616 9.47269 14.9403C9.47269 15.554 9.94808 16.0626 10.5467 16.0626ZM10.5467 21.6213H22.0971C22.7133 21.6213 23.1887 21.1303 23.1887 20.5341C23.1887 19.9204 22.7133 19.4294 22.0971 19.4294H10.5467C9.94808 19.4294 9.47269 19.9204 9.47269 20.5341C9.47269 21.1303 9.94808 21.6213 10.5467 21.6213Z" fill="white"/>
</svg>
